<svg xmlns="http://www.w3.org/2000/svg" viewBox="0 0 128 128" width="128" height="128">
  <g stroke-linejoin="round" stroke-linecap="round">
    
    <path d="M0 74 C18 62 34 86 52 74 C70 62 86 86 104 74 C114 68 122 70 128 74 V128 H0 Z"
          fill="#2f7fc4" stroke="#1b120a" stroke-width="5"/>
    <path d="M0 96 C18 84 34 108 52 96 C70 84 86 108 104 96 C114 90 122 92 128 96" fill="none"
          stroke="#8fd0f5" stroke-width="5"/>
    <path d="M10 46 C34 34 58 44 78 30" fill="none" stroke="#ffd23f" stroke-width="7"
          stroke-dasharray="12 10" stroke-linecap="round"/>
    <path d="M18 52 L110 52 L92 84 L36 84 Z" fill="#a8703a" stroke="#1b120a" stroke-width="5.5"/>
    <path d="M28 62 H100" fill="none" stroke="#6f4520" stroke-width="5"/>
    <path d="M62 8 V52" fill="none" stroke="#1b120a" stroke-width="6"/>
    <path d="M66 12 L102 26 L66 40 Z" fill="#f2ead3" stroke="#1b120a" stroke-width="5"/>
    <g stroke="#1b120a" stroke-width="3.5"><circle cx="92" cy="116" r="6.5" fill="#ff9d2e"/><circle cx="106" cy="116" r="6.5" fill="#ff9d2e"/><circle cx="120" cy="116" r="6.5" fill="#ff9d2e"/></g>
  </g>
</svg>
